<mxfile host="app.diagrams.net" agent="Mozilla/5.0 (X11; Ubuntu; Linux x86_64; rv:140.0) Gecko/20100101 Firefox/140.0" version="28.0.7">
  <diagram name="Page-1" id="fu1Su_CKl23A4MXsglGt">
    <mxGraphModel dx="1366" dy="816" grid="0" gridSize="10" guides="1" tooltips="1" connect="1" arrows="1" fold="1" page="0" pageScale="1" pageWidth="1100" pageHeight="850" math="0" shadow="0">
      <root>
        <mxCell id="0" />
        <mxCell id="1" parent="0" />
        <mxCell id="Ojf-92moUXpKow_0tPhl-1" value="" style="curved=1;endArrow=none;html=1;rounded=0;endFill=0;strokeWidth=5;" parent="1" edge="1">
          <mxGeometry width="50" height="50" relative="1" as="geometry">
            <mxPoint x="310" y="80" as="sourcePoint" />
            <mxPoint x="330" y="40" as="targetPoint" />
            <Array as="points">
              <mxPoint x="280" y="80" />
              <mxPoint x="270" y="80" />
              <mxPoint x="275" y="70" />
              <mxPoint x="285" y="50" />
              <mxPoint x="290" y="40" />
              <mxPoint x="300" y="40" />
            </Array>
          </mxGeometry>
        </mxCell>
        <mxCell id="Ojf-92moUXpKow_0tPhl-2" value="" style="curved=1;endArrow=none;html=1;rounded=0;endFill=0;strokeWidth=5;" parent="1" edge="1">
          <mxGeometry width="50" height="50" relative="1" as="geometry">
            <mxPoint x="370" y="60" as="sourcePoint" />
            <mxPoint x="370" y="60" as="targetPoint" />
            <Array as="points">
              <mxPoint x="365" y="70" />
              <mxPoint x="360" y="80" />
              <mxPoint x="350" y="80" />
              <mxPoint x="330" y="80" />
              <mxPoint x="320" y="80" />
              <mxPoint x="325" y="70" />
              <mxPoint x="335" y="50" />
              <mxPoint x="340" y="40" />
              <mxPoint x="350" y="40" />
              <mxPoint x="370" y="40" />
              <mxPoint x="380" y="40" />
              <mxPoint x="375" y="50" />
            </Array>
          </mxGeometry>
        </mxCell>
        <mxCell id="Ojf-92moUXpKow_0tPhl-4" value="" style="curved=1;endArrow=none;html=1;rounded=0;endFill=0;strokeWidth=5;" parent="1" edge="1">
          <mxGeometry width="50" height="50" relative="1" as="geometry">
            <mxPoint x="375" y="80" as="sourcePoint" />
            <mxPoint x="435" y="40" as="targetPoint" />
            <Array as="points">
              <mxPoint x="390" y="47.5" />
              <mxPoint x="395" y="37.5" />
              <mxPoint x="400" y="47.5" />
              <mxPoint x="410" y="72.5" />
              <mxPoint x="415" y="82.5" />
              <mxPoint x="420" y="72.5" />
            </Array>
          </mxGeometry>
        </mxCell>
        <mxCell id="Ojf-92moUXpKow_0tPhl-20" value="" style="curved=1;endArrow=none;html=1;rounded=0;endFill=0;strokeWidth=5;" parent="1" edge="1">
          <mxGeometry width="50" height="50" relative="1" as="geometry">
            <mxPoint x="430" y="80" as="sourcePoint" />
            <mxPoint x="490" y="40" as="targetPoint" />
            <Array as="points">
              <mxPoint x="460" y="80" />
              <mxPoint x="470" y="80" />
              <mxPoint x="475" y="70" />
              <mxPoint x="480" y="60" />
              <mxPoint x="470" y="60" />
              <mxPoint x="450" y="60" />
              <mxPoint x="440" y="60" />
              <mxPoint x="445" y="50" />
              <mxPoint x="450" y="40" />
              <mxPoint x="460" y="40" />
            </Array>
          </mxGeometry>
        </mxCell>
        <mxCell id="Ojf-92moUXpKow_0tPhl-21" value="" style="endArrow=none;html=1;rounded=0;strokeWidth=5;" parent="1" edge="1">
          <mxGeometry width="50" height="50" relative="1" as="geometry">
            <mxPoint x="490" y="40" as="sourcePoint" />
            <mxPoint x="550" y="40" as="targetPoint" />
          </mxGeometry>
        </mxCell>
        <mxCell id="Ojf-92moUXpKow_0tPhl-22" value="" style="endArrow=none;html=1;rounded=0;strokeWidth=5;" parent="1" edge="1">
          <mxGeometry width="50" height="50" relative="1" as="geometry">
            <mxPoint x="520" y="40" as="sourcePoint" />
            <mxPoint x="500" y="80" as="targetPoint" />
          </mxGeometry>
        </mxCell>
        <mxCell id="Ojf-92moUXpKow_0tPhl-23" value="" style="curved=1;endArrow=none;html=1;rounded=0;endFill=0;strokeWidth=5;" parent="1" edge="1">
          <mxGeometry width="50" height="50" relative="1" as="geometry">
            <mxPoint x="550" y="40" as="sourcePoint" />
            <mxPoint x="570" y="80" as="targetPoint" />
            <Array as="points">
              <mxPoint x="560" y="40" />
              <mxPoint x="580" y="40" />
              <mxPoint x="590" y="40" />
              <mxPoint x="585" y="50" />
              <mxPoint x="580" y="60" />
              <mxPoint x="570" y="60" />
              <mxPoint x="550" y="60" />
              <mxPoint x="540" y="60" />
              <mxPoint x="545" y="65" />
            </Array>
          </mxGeometry>
        </mxCell>
        <mxCell id="Ojf-92moUXpKow_0tPhl-24" value="" style="endArrow=none;html=1;rounded=0;strokeWidth=5;" parent="1" edge="1">
          <mxGeometry width="50" height="50" relative="1" as="geometry">
            <mxPoint x="547.5" y="45" as="sourcePoint" />
            <mxPoint x="530" y="80" as="targetPoint" />
          </mxGeometry>
        </mxCell>
        <mxCell id="Ojf-92moUXpKow_0tPhl-31" value="" style="curved=1;endArrow=none;html=1;rounded=0;endFill=0;strokeWidth=5;" parent="1" edge="1">
          <mxGeometry width="50" height="50" relative="1" as="geometry">
            <mxPoint x="585" y="80" as="sourcePoint" />
            <mxPoint x="625" y="80" as="targetPoint" />
            <Array as="points">
              <mxPoint x="600" y="50" />
              <mxPoint x="605" y="40" />
              <mxPoint x="615" y="40" />
              <mxPoint x="635" y="40" />
              <mxPoint x="645" y="40" />
              <mxPoint x="640" y="50" />
            </Array>
          </mxGeometry>
        </mxCell>
        <mxCell id="Ojf-92moUXpKow_0tPhl-32" value="" style="endArrow=none;html=1;rounded=0;strokeWidth=5;" parent="1" edge="1">
          <mxGeometry width="50" height="50" relative="1" as="geometry">
            <mxPoint x="595" y="60" as="sourcePoint" />
            <mxPoint x="635" y="60" as="targetPoint" />
          </mxGeometry>
        </mxCell>
        <mxCell id="Ojf-92moUXpKow_0tPhl-33" value="" style="endArrow=none;html=1;rounded=0;strokeWidth=5;" parent="1" edge="1">
          <mxGeometry width="50" height="50" relative="1" as="geometry">
            <mxPoint x="655" y="40" as="sourcePoint" />
            <mxPoint x="695" y="40" as="targetPoint" />
          </mxGeometry>
        </mxCell>
        <mxCell id="Ojf-92moUXpKow_0tPhl-34" value="" style="endArrow=none;html=1;rounded=0;strokeWidth=5;" parent="1" edge="1">
          <mxGeometry width="50" height="50" relative="1" as="geometry">
            <mxPoint x="675" y="40" as="sourcePoint" />
            <mxPoint x="655" y="80" as="targetPoint" />
          </mxGeometry>
        </mxCell>
        <mxCell id="Ojf-92moUXpKow_0tPhl-36" value="" style="endArrow=none;html=1;rounded=0;strokeWidth=5;" parent="1" edge="1">
          <mxGeometry width="50" height="50" relative="1" as="geometry">
            <mxPoint x="635" y="80" as="sourcePoint" />
            <mxPoint x="675" y="80" as="targetPoint" />
          </mxGeometry>
        </mxCell>
        <mxCell id="Ojf-92moUXpKow_0tPhl-35" value="" style="curved=1;endArrow=none;html=1;rounded=0;endFill=0;strokeWidth=5;" parent="1" edge="1">
          <mxGeometry width="50" height="50" relative="1" as="geometry">
            <mxPoint x="685" y="80" as="sourcePoint" />
            <mxPoint x="745" y="40" as="targetPoint" />
            <Array as="points">
              <mxPoint x="700" y="47.5" />
              <mxPoint x="705" y="37.5" />
              <mxPoint x="710" y="47.5" />
              <mxPoint x="720" y="72.5" />
              <mxPoint x="725" y="82.5" />
              <mxPoint x="730" y="72.5" />
            </Array>
          </mxGeometry>
        </mxCell>
        <mxCell id="Ojf-92moUXpKow_0tPhl-37" value="" style="curved=1;endArrow=none;html=1;rounded=0;endFill=0;strokeWidth=5;" parent="1" edge="1">
          <mxGeometry width="50" height="50" relative="1" as="geometry">
            <mxPoint x="780" y="80" as="sourcePoint" />
            <mxPoint x="800" y="40" as="targetPoint" />
            <Array as="points">
              <mxPoint x="750" y="80" />
              <mxPoint x="740" y="80" />
              <mxPoint x="745" y="70" />
              <mxPoint x="755" y="50" />
              <mxPoint x="760" y="40" />
              <mxPoint x="770" y="40" />
            </Array>
          </mxGeometry>
        </mxCell>
        <mxCell id="Ojf-92moUXpKow_0tPhl-38" value="" style="endArrow=none;html=1;rounded=0;strokeWidth=5;" parent="1" edge="1">
          <mxGeometry width="50" height="50" relative="1" as="geometry">
            <mxPoint x="750" y="60" as="sourcePoint" />
            <mxPoint x="780" y="60" as="targetPoint" />
          </mxGeometry>
        </mxCell>
        <mxCell id="Ojf-92moUXpKow_0tPhl-39" value="" style="curved=1;endArrow=none;html=1;rounded=0;endFill=0;strokeWidth=5;" parent="1" edge="1">
          <mxGeometry width="50" height="50" relative="1" as="geometry">
            <mxPoint x="840" y="60" as="sourcePoint" />
            <mxPoint x="840" y="60" as="targetPoint" />
            <Array as="points">
              <mxPoint x="830" y="80" />
              <mxPoint x="800" y="80" />
              <mxPoint x="790" y="80" />
              <mxPoint x="795" y="70" />
              <mxPoint x="805" y="50" />
              <mxPoint x="810" y="40" />
              <mxPoint x="820" y="40" />
              <mxPoint x="850" y="40" />
            </Array>
          </mxGeometry>
        </mxCell>
        <mxCell id="Ojf-92moUXpKow_0tPhl-40" value="" style="curved=1;endArrow=none;html=1;rounded=0;endFill=0;strokeWidth=5;" parent="1" edge="1">
          <mxGeometry width="50" height="50" relative="1" as="geometry">
            <mxPoint x="240" y="140" as="sourcePoint" />
            <mxPoint x="300" y="100" as="targetPoint" />
            <Array as="points">
              <mxPoint x="255" y="107.5" />
              <mxPoint x="260" y="97.5" />
              <mxPoint x="265" y="107.5" />
              <mxPoint x="275" y="132.5" />
              <mxPoint x="280" y="142.5" />
              <mxPoint x="285" y="132.5" />
            </Array>
          </mxGeometry>
        </mxCell>
        <mxCell id="Ojf-92moUXpKow_0tPhl-41" value="" style="curved=1;endArrow=none;html=1;rounded=0;endFill=0;strokeWidth=5;" parent="1" edge="1">
          <mxGeometry width="50" height="50" relative="1" as="geometry">
            <mxPoint x="345" y="120" as="sourcePoint" />
            <mxPoint x="345" y="120" as="targetPoint" />
            <Array as="points">
              <mxPoint x="340" y="130" />
              <mxPoint x="335" y="140" />
              <mxPoint x="325" y="140" />
              <mxPoint x="305" y="140" />
              <mxPoint x="295" y="140" />
              <mxPoint x="300" y="130" />
              <mxPoint x="310" y="110" />
              <mxPoint x="315" y="100" />
              <mxPoint x="325" y="100" />
              <mxPoint x="345" y="100" />
              <mxPoint x="355" y="100" />
              <mxPoint x="350" y="110" />
            </Array>
          </mxGeometry>
        </mxCell>
        <mxCell id="Ojf-92moUXpKow_0tPhl-42" value="" style="curved=1;endArrow=none;html=1;rounded=0;endFill=0;strokeWidth=5;" parent="1" edge="1">
          <mxGeometry width="50" height="50" relative="1" as="geometry">
            <mxPoint x="400" y="120" as="sourcePoint" />
            <mxPoint x="400" y="120" as="targetPoint" />
            <Array as="points">
              <mxPoint x="390" y="140" />
              <mxPoint x="360" y="140" />
              <mxPoint x="350" y="140" />
              <mxPoint x="355" y="130" />
              <mxPoint x="365" y="110" />
              <mxPoint x="370" y="100" />
              <mxPoint x="380" y="100" />
              <mxPoint x="410" y="100" />
            </Array>
          </mxGeometry>
        </mxCell>
        <mxCell id="Ojf-92moUXpKow_0tPhl-43" value="" style="curved=1;endArrow=none;html=1;rounded=0;endFill=0;strokeWidth=5;" parent="1" edge="1">
          <mxGeometry width="50" height="50" relative="1" as="geometry">
            <mxPoint x="445" y="140" as="sourcePoint" />
            <mxPoint x="465" y="100" as="targetPoint" />
            <Array as="points">
              <mxPoint x="415" y="140" />
              <mxPoint x="405" y="140" />
              <mxPoint x="410" y="130" />
              <mxPoint x="420" y="110" />
              <mxPoint x="425" y="100" />
              <mxPoint x="435" y="100" />
            </Array>
          </mxGeometry>
        </mxCell>
        <mxCell id="Ojf-92moUXpKow_0tPhl-44" value="" style="endArrow=none;html=1;rounded=0;strokeWidth=5;" parent="1" edge="1">
          <mxGeometry width="50" height="50" relative="1" as="geometry">
            <mxPoint x="415" y="120" as="sourcePoint" />
            <mxPoint x="445" y="120" as="targetPoint" />
          </mxGeometry>
        </mxCell>
        <mxCell id="Ojf-92moUXpKow_0tPhl-45" value="" style="curved=1;endArrow=none;html=1;rounded=0;endFill=0;strokeWidth=5;" parent="1" edge="1">
          <mxGeometry width="50" height="50" relative="1" as="geometry">
            <mxPoint x="210" y="200" as="sourcePoint" />
            <mxPoint x="250" y="200" as="targetPoint" />
            <Array as="points">
              <mxPoint x="225" y="170" />
              <mxPoint x="230" y="160" />
              <mxPoint x="240" y="160" />
              <mxPoint x="260" y="160" />
              <mxPoint x="270" y="160" />
              <mxPoint x="265" y="170" />
            </Array>
          </mxGeometry>
        </mxCell>
        <mxCell id="Ojf-92moUXpKow_0tPhl-46" value="" style="endArrow=none;html=1;rounded=0;strokeWidth=5;" parent="1" edge="1">
          <mxGeometry width="50" height="50" relative="1" as="geometry">
            <mxPoint x="220" y="180" as="sourcePoint" />
            <mxPoint x="260" y="180" as="targetPoint" />
          </mxGeometry>
        </mxCell>
        <mxCell id="Ojf-92moUXpKow_0tPhl-47" value="" style="curved=1;endArrow=none;html=1;rounded=0;endFill=0;strokeWidth=5;" parent="1" edge="1">
          <mxGeometry width="50" height="50" relative="1" as="geometry">
            <mxPoint x="305" y="200" as="sourcePoint" />
            <mxPoint x="285" y="160" as="targetPoint" />
            <Array as="points">
              <mxPoint x="275" y="200" />
              <mxPoint x="265" y="200" />
              <mxPoint x="270" y="190" />
              <mxPoint x="280" y="170" />
            </Array>
          </mxGeometry>
        </mxCell>
        <mxCell id="Ojf-92moUXpKow_0tPhl-48" value="" style="curved=1;endArrow=none;html=1;rounded=0;endFill=0;strokeWidth=5;" parent="1" edge="1">
          <mxGeometry width="50" height="50" relative="1" as="geometry">
            <mxPoint x="355" y="200" as="sourcePoint" />
            <mxPoint x="335" y="160" as="targetPoint" />
            <Array as="points">
              <mxPoint x="325" y="200" />
              <mxPoint x="315" y="200" />
              <mxPoint x="320" y="190" />
              <mxPoint x="330" y="170" />
            </Array>
          </mxGeometry>
        </mxCell>
        <mxCell id="Ojf-92moUXpKow_0tPhl-49" value="" style="curved=1;endArrow=none;html=1;rounded=0;endFill=0;strokeWidth=5;" parent="1" edge="1">
          <mxGeometry width="50" height="50" relative="1" as="geometry">
            <mxPoint x="415" y="180" as="sourcePoint" />
            <mxPoint x="415" y="180" as="targetPoint" />
            <Array as="points">
              <mxPoint x="410" y="190" />
              <mxPoint x="405" y="200" />
              <mxPoint x="395" y="200" />
              <mxPoint x="375" y="200" />
              <mxPoint x="365" y="200" />
              <mxPoint x="370" y="190" />
              <mxPoint x="380" y="170" />
              <mxPoint x="385" y="160" />
              <mxPoint x="395" y="160" />
              <mxPoint x="415" y="160" />
              <mxPoint x="425" y="160" />
              <mxPoint x="420" y="170" />
            </Array>
          </mxGeometry>
        </mxCell>
        <mxCell id="Ojf-92moUXpKow_0tPhl-50" value="" style="curved=1;endArrow=none;html=1;rounded=0;endFill=0;strokeWidth=5;" parent="1" edge="1">
          <mxGeometry width="50" height="50" relative="1" as="geometry">
            <mxPoint x="460" y="200" as="sourcePoint" />
            <mxPoint x="480" y="160" as="targetPoint" />
            <Array as="points">
              <mxPoint x="430" y="200" />
              <mxPoint x="420" y="200" />
              <mxPoint x="425" y="190" />
              <mxPoint x="435" y="170" />
              <mxPoint x="440" y="160" />
              <mxPoint x="450" y="160" />
            </Array>
          </mxGeometry>
        </mxCell>
        <mxCell id="Ojf-92moUXpKow_0tPhl-51" value="" style="curved=1;endArrow=none;html=1;rounded=0;endFill=0;strokeWidth=5;" parent="1" edge="1">
          <mxGeometry width="50" height="50" relative="1" as="geometry">
            <mxPoint x="470" y="200" as="sourcePoint" />
            <mxPoint x="510" y="200" as="targetPoint" />
            <Array as="points">
              <mxPoint x="485" y="170" />
              <mxPoint x="490" y="160" />
              <mxPoint x="500" y="160" />
              <mxPoint x="520" y="160" />
              <mxPoint x="530" y="160" />
              <mxPoint x="525" y="170" />
            </Array>
          </mxGeometry>
        </mxCell>
        <mxCell id="Ojf-92moUXpKow_0tPhl-52" value="" style="endArrow=none;html=1;rounded=0;strokeWidth=5;" parent="1" edge="1">
          <mxGeometry width="50" height="50" relative="1" as="geometry">
            <mxPoint x="480" y="180" as="sourcePoint" />
            <mxPoint x="520" y="180" as="targetPoint" />
          </mxGeometry>
        </mxCell>
        <mxCell id="Ojf-92moUXpKow_0tPhl-53" value="" style="endArrow=none;html=1;rounded=0;strokeWidth=5;" parent="1" edge="1">
          <mxGeometry width="50" height="50" relative="1" as="geometry">
            <mxPoint x="540" y="160" as="sourcePoint" />
            <mxPoint x="590" y="160" as="targetPoint" />
          </mxGeometry>
        </mxCell>
        <mxCell id="Ojf-92moUXpKow_0tPhl-54" value="" style="endArrow=none;html=1;rounded=0;strokeWidth=5;" parent="1" edge="1">
          <mxGeometry width="50" height="50" relative="1" as="geometry">
            <mxPoint x="560" y="160" as="sourcePoint" />
            <mxPoint x="540" y="200" as="targetPoint" />
          </mxGeometry>
        </mxCell>
        <mxCell id="Ojf-92moUXpKow_0tPhl-55" value="" style="endArrow=none;html=1;rounded=0;strokeWidth=5;" parent="1" edge="1">
          <mxGeometry width="50" height="50" relative="1" as="geometry">
            <mxPoint x="590" y="160" as="sourcePoint" />
            <mxPoint x="630" y="160" as="targetPoint" />
          </mxGeometry>
        </mxCell>
        <mxCell id="Ojf-92moUXpKow_0tPhl-56" value="" style="endArrow=none;html=1;rounded=0;strokeWidth=5;" parent="1" edge="1">
          <mxGeometry width="50" height="50" relative="1" as="geometry">
            <mxPoint x="610" y="160" as="sourcePoint" />
            <mxPoint x="590" y="200" as="targetPoint" />
          </mxGeometry>
        </mxCell>
        <mxCell id="Ojf-92moUXpKow_0tPhl-57" value="" style="endArrow=none;html=1;rounded=0;strokeWidth=5;" parent="1" edge="1">
          <mxGeometry width="50" height="50" relative="1" as="geometry">
            <mxPoint x="570" y="200" as="sourcePoint" />
            <mxPoint x="610" y="200" as="targetPoint" />
          </mxGeometry>
        </mxCell>
        <mxCell id="Ojf-92moUXpKow_0tPhl-58" value="" style="curved=1;endArrow=none;html=1;rounded=0;endFill=0;strokeWidth=5;" parent="1" edge="1">
          <mxGeometry width="50" height="50" relative="1" as="geometry">
            <mxPoint x="670" y="180" as="sourcePoint" />
            <mxPoint x="670" y="180" as="targetPoint" />
            <Array as="points">
              <mxPoint x="665" y="190" />
              <mxPoint x="660" y="200" />
              <mxPoint x="650" y="200" />
              <mxPoint x="630" y="200" />
              <mxPoint x="620" y="200" />
              <mxPoint x="625" y="190" />
              <mxPoint x="635" y="170" />
              <mxPoint x="640" y="160" />
              <mxPoint x="650" y="160" />
              <mxPoint x="670" y="160" />
              <mxPoint x="680" y="160" />
              <mxPoint x="675" y="170" />
            </Array>
          </mxGeometry>
        </mxCell>
        <mxCell id="Ojf-92moUXpKow_0tPhl-59" value="" style="curved=1;endArrow=none;html=1;rounded=0;endFill=0;strokeWidth=5;" parent="1" edge="1">
          <mxGeometry width="50" height="50" relative="1" as="geometry">
            <mxPoint x="675" y="200" as="sourcePoint" />
            <mxPoint x="735" y="160" as="targetPoint" />
            <Array as="points">
              <mxPoint x="690" y="167.5" />
              <mxPoint x="695" y="157.5" />
              <mxPoint x="700" y="167.5" />
              <mxPoint x="710" y="192.5" />
              <mxPoint x="715" y="202.5" />
              <mxPoint x="720" y="192.5" />
            </Array>
          </mxGeometry>
        </mxCell>
        <mxCell id="Ojf-92moUXpKow_0tPhl-61" value="" style="curved=1;endArrow=none;html=1;rounded=0;endFill=0;strokeWidth=5;" parent="1" edge="1">
          <mxGeometry width="50" height="50" relative="1" as="geometry">
            <mxPoint x="190" y="240" as="sourcePoint" />
            <mxPoint x="190" y="240" as="targetPoint" />
            <Array as="points">
              <mxPoint x="195" y="230" />
              <mxPoint x="200" y="220" />
              <mxPoint x="210" y="220" />
              <mxPoint x="240" y="220" />
              <mxPoint x="230" y="240" />
              <mxPoint x="200" y="240" />
            </Array>
          </mxGeometry>
        </mxCell>
        <mxCell id="Ojf-92moUXpKow_0tPhl-62" value="" style="curved=1;endArrow=none;html=1;rounded=0;endFill=0;strokeWidth=5;" parent="1" edge="1">
          <mxGeometry width="50" height="50" relative="1" as="geometry">
            <mxPoint x="190" y="240" as="sourcePoint" />
            <mxPoint x="190" y="240" as="targetPoint" />
            <Array as="points">
              <mxPoint x="200" y="240" />
              <mxPoint x="230" y="240" />
              <mxPoint x="220" y="260" />
              <mxPoint x="190" y="260" />
              <mxPoint x="180" y="260" />
              <mxPoint x="185" y="250" />
            </Array>
          </mxGeometry>
        </mxCell>
        <mxCell id="Ojf-92moUXpKow_0tPhl-63" value="" style="curved=1;endArrow=none;html=1;rounded=0;endFill=0;strokeWidth=5;" parent="1" edge="1">
          <mxGeometry width="50" height="50" relative="1" as="geometry">
            <mxPoint x="235" y="260" as="sourcePoint" />
            <mxPoint x="275" y="260" as="targetPoint" />
            <Array as="points">
              <mxPoint x="250" y="230" />
              <mxPoint x="255" y="220" />
              <mxPoint x="265" y="220" />
              <mxPoint x="285" y="220" />
              <mxPoint x="295" y="220" />
              <mxPoint x="290" y="230" />
            </Array>
          </mxGeometry>
        </mxCell>
        <mxCell id="Ojf-92moUXpKow_0tPhl-64" value="" style="endArrow=none;html=1;rounded=0;strokeWidth=5;" parent="1" edge="1">
          <mxGeometry width="50" height="50" relative="1" as="geometry">
            <mxPoint x="245" y="240" as="sourcePoint" />
            <mxPoint x="285" y="240" as="targetPoint" />
          </mxGeometry>
        </mxCell>
        <mxCell id="Ojf-92moUXpKow_0tPhl-65" value="" style="curved=1;endArrow=none;html=1;rounded=0;endFill=0;strokeWidth=5;" parent="1" edge="1">
          <mxGeometry width="50" height="50" relative="1" as="geometry">
            <mxPoint x="330" y="260" as="sourcePoint" />
            <mxPoint x="310" y="220" as="targetPoint" />
            <Array as="points">
              <mxPoint x="300" y="260" />
              <mxPoint x="290" y="260" />
              <mxPoint x="295" y="250" />
              <mxPoint x="305" y="230" />
            </Array>
          </mxGeometry>
        </mxCell>
        <mxCell id="Ojf-92moUXpKow_0tPhl-66" value="" style="curved=1;endArrow=none;html=1;rounded=0;endFill=0;strokeWidth=5;" parent="1" edge="1">
          <mxGeometry width="50" height="50" relative="1" as="geometry">
            <mxPoint x="340" y="260" as="sourcePoint" />
            <mxPoint x="380" y="260" as="targetPoint" />
            <Array as="points">
              <mxPoint x="355" y="230" />
              <mxPoint x="360" y="220" />
              <mxPoint x="370" y="220" />
              <mxPoint x="390" y="220" />
              <mxPoint x="400" y="220" />
              <mxPoint x="395" y="230" />
            </Array>
          </mxGeometry>
        </mxCell>
        <mxCell id="Ojf-92moUXpKow_0tPhl-67" value="" style="endArrow=none;html=1;rounded=0;strokeWidth=5;" parent="1" edge="1">
          <mxGeometry width="50" height="50" relative="1" as="geometry">
            <mxPoint x="350" y="240" as="sourcePoint" />
            <mxPoint x="390" y="240" as="targetPoint" />
          </mxGeometry>
        </mxCell>
        <mxCell id="Ojf-92moUXpKow_0tPhl-68" value="" style="curved=1;endArrow=none;html=1;rounded=0;endFill=0;strokeWidth=5;" parent="1" edge="1">
          <mxGeometry width="50" height="50" relative="1" as="geometry">
            <mxPoint x="395" y="260" as="sourcePoint" />
            <mxPoint x="455" y="220" as="targetPoint" />
            <Array as="points">
              <mxPoint x="410" y="227.5" />
              <mxPoint x="415" y="217.5" />
              <mxPoint x="420" y="227.5" />
              <mxPoint x="430" y="252.5" />
              <mxPoint x="435" y="262.5" />
              <mxPoint x="440" y="252.5" />
            </Array>
          </mxGeometry>
        </mxCell>
        <mxCell id="Ojf-92moUXpKow_0tPhl-69" value="" style="curved=1;endArrow=none;html=1;rounded=0;endFill=0;strokeWidth=5;" parent="1" edge="1">
          <mxGeometry width="50" height="50" relative="1" as="geometry">
            <mxPoint x="490" y="260" as="sourcePoint" />
            <mxPoint x="510" y="220" as="targetPoint" />
            <Array as="points">
              <mxPoint x="460" y="260" />
              <mxPoint x="450" y="260" />
              <mxPoint x="455" y="250" />
              <mxPoint x="465" y="230" />
              <mxPoint x="470" y="220" />
              <mxPoint x="480" y="220" />
            </Array>
          </mxGeometry>
        </mxCell>
        <mxCell id="Ojf-92moUXpKow_0tPhl-70" value="" style="curved=1;endArrow=none;html=1;rounded=0;endFill=0;strokeWidth=5;" parent="1" edge="1">
          <mxGeometry width="50" height="50" relative="1" as="geometry">
            <mxPoint x="540" y="260" as="sourcePoint" />
            <mxPoint x="570" y="220" as="targetPoint" />
            <Array as="points">
              <mxPoint x="510" y="260" />
              <mxPoint x="500" y="260" />
              <mxPoint x="505" y="250" />
              <mxPoint x="515" y="230" />
              <mxPoint x="520" y="220" />
              <mxPoint x="530" y="220" />
            </Array>
          </mxGeometry>
        </mxCell>
        <mxCell id="Ojf-92moUXpKow_0tPhl-71" value="" style="endArrow=none;html=1;rounded=0;strokeWidth=5;" parent="1" edge="1">
          <mxGeometry width="50" height="50" relative="1" as="geometry">
            <mxPoint x="510" y="240" as="sourcePoint" />
            <mxPoint x="540" y="240" as="targetPoint" />
          </mxGeometry>
        </mxCell>
        <mxCell id="Ojf-92moUXpKow_0tPhl-72" value="" style="endArrow=none;html=1;rounded=0;strokeWidth=5;" parent="1" edge="1">
          <mxGeometry width="50" height="50" relative="1" as="geometry">
            <mxPoint x="567.5" y="225" as="sourcePoint" />
            <mxPoint x="550" y="260" as="targetPoint" />
          </mxGeometry>
        </mxCell>
        <mxCell id="Ojf-92moUXpKow_0tPhl-73" value="" style="curved=1;endArrow=none;html=1;rounded=0;endFill=0;strokeWidth=5;" parent="1" edge="1">
          <mxGeometry width="50" height="50" relative="1" as="geometry">
            <mxPoint x="570" y="220" as="sourcePoint" />
            <mxPoint x="590" y="260" as="targetPoint" />
            <Array as="points">
              <mxPoint x="580" y="220" />
              <mxPoint x="600" y="220" />
              <mxPoint x="610" y="220" />
              <mxPoint x="605" y="230" />
              <mxPoint x="600" y="240" />
              <mxPoint x="590" y="240" />
              <mxPoint x="570" y="240" />
              <mxPoint x="560" y="240" />
              <mxPoint x="565" y="245" />
            </Array>
          </mxGeometry>
        </mxCell>
        <mxCell id="Ojf-92moUXpKow_0tPhl-75" value="" style="curved=1;endArrow=none;html=1;rounded=0;endFill=0;strokeWidth=2;" parent="1" edge="1">
          <mxGeometry width="50" height="50" relative="1" as="geometry">
            <mxPoint x="210" y="40" as="sourcePoint" />
            <mxPoint x="241" y="100" as="targetPoint" />
            <Array as="points">
              <mxPoint x="186" y="90" />
              <mxPoint x="181" y="100" />
              <mxPoint x="191" y="100" />
            </Array>
          </mxGeometry>
        </mxCell>
        <mxCell id="Ojf-92moUXpKow_0tPhl-76" value="" style="curved=1;endArrow=none;html=1;rounded=0;endFill=0;strokeWidth=2;" parent="1" edge="1">
          <mxGeometry width="50" height="50" relative="1" as="geometry">
            <mxPoint x="150" y="160" as="sourcePoint" />
            <mxPoint x="180" y="220" as="targetPoint" />
            <Array as="points">
              <mxPoint x="125" y="210" />
              <mxPoint x="120" y="220" />
              <mxPoint x="130" y="220" />
            </Array>
          </mxGeometry>
        </mxCell>
        <mxCell id="Ojf-92moUXpKow_0tPhl-77" value="" style="curved=1;endArrow=none;html=1;rounded=0;endFill=0;strokeWidth=2;" parent="1" edge="1">
          <mxGeometry width="50" height="50" relative="1" as="geometry">
            <mxPoint x="150" y="40" as="sourcePoint" />
            <mxPoint x="211" y="160" as="targetPoint" />
            <Array as="points">
              <mxPoint x="95" y="150" />
              <mxPoint x="90" y="160" />
              <mxPoint x="100" y="160" />
            </Array>
          </mxGeometry>
        </mxCell>
        <mxCell id="Ojf-92moUXpKow_0tPhl-78" value="" style="endArrow=none;html=1;rounded=0;strokeWidth=2;endFill=0;" parent="1" edge="1">
          <mxGeometry width="50" height="50" relative="1" as="geometry">
            <mxPoint x="90" y="40" as="sourcePoint" />
            <mxPoint x="270" y="40" as="targetPoint" />
          </mxGeometry>
        </mxCell>
      </root>
    </mxGraphModel>
  </diagram>
</mxfile>
